<?xml version="1.0" encoding="UTF-8" standalone="no"?><svg xmlns="http://www.w3.org/2000/svg" xmlns:xlink="http://www.w3.org/1999/xlink" contentScriptType="application/ecmascript" contentStyleType="text/css" height="348px" preserveAspectRatio="none" style="width:502px;height:348px;" version="1.1" viewBox="0 0 502 348" width="502px" zoomAndPan="magnify"><defs><filter height="300%" id="f1t5mffgj9xykh" width="300%" x="-1" y="-1"><feGaussianBlur result="blurOut" stdDeviation="2.0"/><feColorMatrix in="blurOut" result="blurOut2" type="matrix" values="0 0 0 0 0 0 0 0 0 0 0 0 0 0 0 0 0 0 .4 0"/><feOffset dx="4.0" dy="4.0" in="blurOut2" result="blurOut3"/><feBlend in="SourceGraphic" in2="blurOut3" mode="normal"/></filter></defs><g><rect fill="#FEFECE" filter="url(#f1t5mffgj9xykh)" height="36.2969" rx="12.5" ry="12.5" style="stroke: #A80036; stroke-width: 1.5;" width="108" x="10" y="160.7422"/><text fill="#000000" font-family="sans-serif" font-size="14" lengthAdjust="spacingAndGlyphs" textLength="88" x="20" y="183.7373">struktur data</text><rect fill="#FEFECE" filter="url(#f1t5mffgj9xykh)" height="36.2969" rx="12.5" ry="12.5" style="stroke: #A80036; stroke-width: 1.5;" width="57" x="168" y="104.4453"/><text fill="#000000" font-family="sans-serif" font-size="14" lengthAdjust="spacingAndGlyphs" textLength="37" x="178" y="127.4404">linear</text><rect fill="#FEFECE" filter="url(#f1t5mffgj9xykh)" height="36.2969" rx="12.5" ry="12.5" style="stroke: #A80036; stroke-width: 1.5;" width="57" x="275" y="20"/><text fill="#000000" font-family="sans-serif" font-size="14" lengthAdjust="spacingAndGlyphs" textLength="37" x="285" y="42.9951">static</text><rect fill="#FEFECE" filter="url(#f1t5mffgj9xykh)" height="36.2969" rx="12.5" ry="12.5" style="stroke: #A80036; stroke-width: 1.5;" width="54" x="382" y="20"/><text fill="#000000" font-family="sans-serif" font-size="14" lengthAdjust="spacingAndGlyphs" textLength="34" x="392" y="42.9951">Array</text><path d="M332,38.1484 L342,38.1484 C357,38.1484 357,38.1484 372,38.1484 L382,38.1484 " fill="none" style="stroke: #A80036; stroke-width: 1.0;"/><path d="M225,122.5938 L235,122.5938 C250,122.5938 250,38.1484 265,38.1484 L275,38.1484 " fill="none" style="stroke: #A80036; stroke-width: 1.0;"/><rect fill="#FEFECE" filter="url(#f1t5mffgj9xykh)" height="36.2969" rx="12.5" ry="12.5" style="stroke: #A80036; stroke-width: 1.5;" width="79" x="275" y="132.5938"/><text fill="#000000" font-family="sans-serif" font-size="14" lengthAdjust="spacingAndGlyphs" textLength="59" x="285" y="155.5889">Dynamic</text><rect fill="#FEFECE" filter="url(#f1t5mffgj9xykh)" height="36.2969" rx="12.5" ry="12.5" style="stroke: #A80036; stroke-width: 1.5;" width="67" x="404" y="76.2969"/><text fill="#000000" font-family="sans-serif" font-size="14" lengthAdjust="spacingAndGlyphs" textLength="47" x="414" y="99.292">Queue</text><path d="M354,150.7422 L364,150.7422 C379,150.7422 379,94.4453 394,94.4453 L404,94.4453 " fill="none" style="stroke: #A80036; stroke-width: 1.0;"/><rect fill="#FEFECE" filter="url(#f1t5mffgj9xykh)" height="36.2969" rx="12.5" ry="12.5" style="stroke: #A80036; stroke-width: 1.5;" width="58" x="404" y="132.5938"/><text fill="#000000" font-family="sans-serif" font-size="14" lengthAdjust="spacingAndGlyphs" textLength="38" x="414" y="155.5889">Stack</text><path d="M354,150.7422 L364,150.7422 C379,150.7422 379,150.7422 394,150.7422 L404,150.7422 " fill="none" style="stroke: #A80036; stroke-width: 1.0;"/><rect fill="#FEFECE" filter="url(#f1t5mffgj9xykh)" height="36.2969" rx="12.5" ry="12.5" style="stroke: #A80036; stroke-width: 1.5;" width="87" x="404" y="188.8906"/><text fill="#000000" font-family="sans-serif" font-size="14" lengthAdjust="spacingAndGlyphs" textLength="67" x="414" y="211.8857">linked_list</text><path d="M354,150.7422 L364,150.7422 C379,150.7422 379,207.0391 394,207.0391 L404,207.0391 " fill="none" style="stroke: #A80036; stroke-width: 1.0;"/><path d="M225,122.5938 L235,122.5938 C250,122.5938 250,150.7422 265,150.7422 L275,150.7422 " fill="none" style="stroke: #A80036; stroke-width: 1.0;"/><path d="M118,178.8906 L128,178.8906 C143,178.8906 143,122.5938 158,122.5938 L168,122.5938 " fill="none" style="stroke: #A80036; stroke-width: 1.0;"/><rect fill="#FEFECE" filter="url(#f1t5mffgj9xykh)" height="36.2969" rx="12.5" ry="12.5" style="stroke: #A80036; stroke-width: 1.5;" width="94" x="168" y="273.3359"/><text fill="#000000" font-family="sans-serif" font-size="14" lengthAdjust="spacingAndGlyphs" textLength="74" x="178" y="296.3311">Non-Linear</text><rect fill="#FEFECE" filter="url(#f1t5mffgj9xykh)" height="36.2969" rx="12.5" ry="12.5" style="stroke: #A80036; stroke-width: 1.5;" width="52" x="312" y="245.1875"/><text fill="#000000" font-family="sans-serif" font-size="14" lengthAdjust="spacingAndGlyphs" textLength="32" x="322" y="268.1826">Tree</text><path d="M262,291.4844 L272,291.4844 C287,291.4844 287,263.3359 302,263.3359 L312,263.3359 " fill="none" style="stroke: #A80036; stroke-width: 1.0;"/><rect fill="#FEFECE" filter="url(#f1t5mffgj9xykh)" height="36.2969" rx="12.5" ry="12.5" style="stroke: #A80036; stroke-width: 1.5;" width="62" x="312" y="301.4844"/><text fill="#000000" font-family="sans-serif" font-size="14" lengthAdjust="spacingAndGlyphs" textLength="42" x="322" y="324.4795">Graph</text><path d="M262,291.4844 L272,291.4844 C287,291.4844 287,319.6328 302,319.6328 L312,319.6328 " fill="none" style="stroke: #A80036; stroke-width: 1.0;"/><path d="M118,178.8906 L128,178.8906 C143,178.8906 143,291.4844 158,291.4844 L168,291.4844 " fill="none" style="stroke: #A80036; stroke-width: 1.0;"/><!--MD5=[6f40c7d76474d10caeeaa4e742c030cc]
@startmindmap (data_structure_map)

* struktur data
** linear
*** static
**** Array
*** Dynamic
**** Queue
**** Stack
**** linked_list
** Non-Linear
*** Tree
*** Graph
@endmindmap

PlantUML version 1.2020.02(Sun Mar 01 17:22:07 WIB 2020)
(GPL source distribution)
Java Runtime: OpenJDK Runtime Environment
JVM: OpenJDK 64-Bit Server VM
Java Version: 21.0.6+7-Ubuntu-124.04.1
Operating System: Linux
Default Encoding: UTF-8
Language: en
Country: null
--></g></svg>